<?xml version="1.0" encoding="UTF-8" standalone="no"?>
<!DOCTYPE svg PUBLIC "-//W3C//DTD SVG 1.1//EN"
 "http://www.w3.org/Graphics/SVG/1.1/DTD/svg11.dtd">
<!-- Generated by graphviz version 12.2.1 (20241206.2353)
 -->
<!-- Pages: 1 -->
<svg width="1857pt" height="221pt"
 viewBox="0.00 0.00 1856.57 221.00" xmlns="http://www.w3.org/2000/svg" xmlns:xlink="http://www.w3.org/1999/xlink">
<g id="graph0" class="graph" transform="scale(1 1) rotate(0) translate(4 217)">
<polygon fill="white" stroke="none" points="-4,4 -4,-217 1852.57,-217 1852.57,4 -4,4"/>
<!-- Calculator -->
<g id="node1" class="node">
<title>Calculator</title>
<polygon fill="lightblue" stroke="black" points="1041.91,-213 969.66,-213 969.66,-177 1041.91,-177 1041.91,-213"/>
<text text-anchor="middle" x="1005.78" y="-189.95" font-family="Times New Roman,serif" font-size="14.00">Calculator</text>
</g>
<!-- AdvancedCalculator -->
<g id="node2" class="node">
<title>AdvancedCalculator</title>
<polygon fill="lightblue" stroke="black" points="512.28,-124.5 385.28,-124.5 385.28,-88.5 512.28,-88.5 512.28,-124.5"/>
<text text-anchor="middle" x="448.78" y="-101.45" font-family="Times New Roman,serif" font-size="14.00">AdvancedCalculator</text>
</g>
<!-- Calculator&#45;&gt;AdvancedCalculator -->
<g id="edge1" class="edge">
<title>Calculator&#45;&gt;AdvancedCalculator</title>
<path fill="none" stroke="blue" stroke-width="2" stroke-dasharray="5,2" d="M969.18,-189.84C890.12,-180.61 697.33,-156.86 525.05,-125.02"/>
<polygon fill="none" stroke="blue" stroke-width="2" points="525.86,-121.61 515.39,-123.21 524.58,-128.49 525.86,-121.61"/>
<text text-anchor="middle" x="740.77" y="-145.7" font-family="Times New Roman,serif" font-size="14.00" fill="blue">inherits</text>
</g>
<!-- add_abhik (double (double, double)) -->
<g id="node3" class="node">
<title>add_abhik (double (double, double))</title>
<ellipse fill="lightgreen" stroke="black" cx="677.78" cy="-106.5" rx="147.06" ry="18"/>
<text text-anchor="middle" x="677.78" y="-101.45" font-family="Times New Roman,serif" font-size="14.00">add_abhik (double (double, double))</text>
</g>
<!-- Calculator&#45;&gt;add_abhik (double (double, double)) -->
<g id="edge2" class="edge">
<title>Calculator&#45;&gt;add_abhik (double (double, double))</title>
<path fill="none" stroke="black" d="M969.43,-184.41C916.42,-170.43 816.85,-144.17 748.95,-126.27"/>
<polygon fill="black" stroke="black" points="749.94,-122.91 739.38,-123.74 748.15,-129.68 749.94,-122.91"/>
<text text-anchor="middle" x="890.66" y="-145.7" font-family="Times New Roman,serif" font-size="14.00">defines</text>
</g>
<!-- subtract_abhik (double (double, double)) -->
<g id="node4" class="node">
<title>subtract_abhik (double (double, double))</title>
<ellipse fill="lightgreen" stroke="black" cx="1005.78" cy="-106.5" rx="162.93" ry="18"/>
<text text-anchor="middle" x="1005.78" y="-101.45" font-family="Times New Roman,serif" font-size="14.00">subtract_abhik (double (double, double))</text>
</g>
<!-- Calculator&#45;&gt;subtract_abhik (double (double, double)) -->
<g id="edge3" class="edge">
<title>Calculator&#45;&gt;subtract_abhik (double (double, double))</title>
<path fill="none" stroke="black" d="M1005.78,-176.91C1005.78,-165.26 1005.78,-149.55 1005.78,-136.02"/>
<polygon fill="black" stroke="black" points="1009.28,-136.36 1005.78,-126.36 1002.28,-136.36 1009.28,-136.36"/>
<text text-anchor="middle" x="1025.28" y="-145.7" font-family="Times New Roman,serif" font-size="14.00">defines</text>
</g>
<!-- multiply_abhik (double (double, double)) -->
<g id="node5" class="node">
<title>multiply_abhik (double (double, double))</title>
<ellipse fill="lightgreen" stroke="black" cx="1351.78" cy="-106.5" rx="165.48" ry="18"/>
<text text-anchor="middle" x="1351.78" y="-101.45" font-family="Times New Roman,serif" font-size="14.00">multiply_abhik (double (double, double))</text>
</g>
<!-- Calculator&#45;&gt;multiply_abhik (double (double, double)) -->
<g id="edge4" class="edge">
<title>Calculator&#45;&gt;multiply_abhik (double (double, double))</title>
<path fill="none" stroke="black" d="M1042.16,-184.91C1097.61,-171.04 1204.47,-144.33 1276.96,-126.21"/>
<polygon fill="black" stroke="black" points="1277.52,-129.67 1286.37,-123.85 1275.82,-122.88 1277.52,-129.67"/>
<text text-anchor="middle" x="1229.27" y="-145.7" font-family="Times New Roman,serif" font-size="14.00">defines</text>
</g>
<!-- divide_abhik (double (double, double)) -->
<g id="node6" class="node">
<title>divide_abhik (double (double, double))</title>
<ellipse fill="lightgreen" stroke="black" cx="1691.78" cy="-106.5" rx="156.78" ry="18"/>
<text text-anchor="middle" x="1691.78" y="-101.45" font-family="Times New Roman,serif" font-size="14.00">divide_abhik (double (double, double))</text>
</g>
<!-- Calculator&#45;&gt;divide_abhik (double (double, double)) -->
<g id="edge5" class="edge">
<title>Calculator&#45;&gt;divide_abhik (double (double, double))</title>
<path fill="none" stroke="black" d="M1042.18,-189.41C1141.32,-176.91 1419.29,-141.86 1577.62,-121.89"/>
<polygon fill="black" stroke="black" points="1577.83,-125.4 1587.31,-120.67 1576.95,-118.45 1577.83,-125.4"/>
<text text-anchor="middle" x="1429.73" y="-145.7" font-family="Times New Roman,serif" font-size="14.00">defines</text>
</g>
<!-- power_abhik (double (double, double)) -->
<g id="node7" class="node">
<title>power_abhik (double (double, double))</title>
<ellipse fill="lightgreen" stroke="black" cx="156.78" cy="-18" rx="156.78" ry="18"/>
<text text-anchor="middle" x="156.78" y="-12.95" font-family="Times New Roman,serif" font-size="14.00">power_abhik (double (double, double))</text>
</g>
<!-- AdvancedCalculator&#45;&gt;power_abhik (double (double, double)) -->
<g id="edge6" class="edge">
<title>AdvancedCalculator&#45;&gt;power_abhik (double (double, double))</title>
<path fill="none" stroke="black" d="M390.04,-88.1C341.48,-73.71 272.57,-53.3 222.24,-38.39"/>
<polygon fill="black" stroke="black" points="223.51,-35.12 212.93,-35.63 221.53,-41.83 223.51,-35.12"/>
<text text-anchor="middle" x="348.44" y="-57.2" font-family="Times New Roman,serif" font-size="14.00">defines</text>
</g>
<!-- sqrt_abhik (double (double)) -->
<g id="node8" class="node">
<title>sqrt_abhik (double (double))</title>
<ellipse fill="lightgreen" stroke="black" cx="448.78" cy="-18" rx="117.37" ry="18"/>
<text text-anchor="middle" x="448.78" y="-12.95" font-family="Times New Roman,serif" font-size="14.00">sqrt_abhik (double (double))</text>
</g>
<!-- AdvancedCalculator&#45;&gt;sqrt_abhik (double (double)) -->
<g id="edge7" class="edge">
<title>AdvancedCalculator&#45;&gt;sqrt_abhik (double (double))</title>
<path fill="none" stroke="black" d="M448.78,-88.41C448.78,-76.76 448.78,-61.05 448.78,-47.52"/>
<polygon fill="black" stroke="black" points="452.28,-47.86 448.78,-37.86 445.28,-47.86 452.28,-47.86"/>
<text text-anchor="middle" x="468.28" y="-57.2" font-family="Times New Roman,serif" font-size="14.00">defines</text>
</g>
<!-- log_abhik (double (double)) -->
<g id="node9" class="node">
<title>log_abhik (double (double))</title>
<ellipse fill="lightgreen" stroke="black" cx="699.78" cy="-18" rx="115.33" ry="18"/>
<text text-anchor="middle" x="699.78" y="-12.95" font-family="Times New Roman,serif" font-size="14.00">log_abhik (double (double))</text>
</g>
<!-- AdvancedCalculator&#45;&gt;log_abhik (double (double)) -->
<g id="edge8" class="edge">
<title>AdvancedCalculator&#45;&gt;log_abhik (double (double))</title>
<path fill="none" stroke="black" d="M499.28,-88.1C540.85,-73.77 599.76,-53.47 642.97,-38.58"/>
<polygon fill="black" stroke="black" points="643.86,-41.98 652.17,-35.41 641.58,-35.36 643.86,-41.98"/>
<text text-anchor="middle" x="616.27" y="-57.2" font-family="Times New Roman,serif" font-size="14.00">defines</text>
</g>
</g>
</svg>
